#!OML:ASF F:\VICON\USERDATA\INSTALL\rory3\rory3.ASF
:FULLY-SPECIFIED
:DEGREES
601
root -2.74852 15.4086 -6.3095 -13.6738 -73.9318 -331.053
lowerback -2.27079 4.51944 -7.79436
upperback -7.56085 5.29055 -6.3332
thorax -6.81359 2.74114 -2.52875
lowerneck -13.1733 -6.91643 -6.9511
upperneck 38.7926 -12.0574 5.37448
head 17.1707 -5.72518 1.26513
rclavicle 2.69105e-014 -3.97569e-015
rhumerus -11.2777 21.9709 -72.8053
rradius 64.8447
rwrist -50.2286
rhand 7.49946 9.81748
rfingers 7.12502
rthumb 32.751 -17.2349
lclavicle 2.69105e-014 -3.97569e-015
lhumerus -35.3846 43.7271 11.2645
lradius 27.0118
lwrist 7.3321
lhand -9.8901 34.0308
lfingers 7.12502
lthumb 16.0895 63.3829
rfemur 267.197 -20.4154 -302.112
rtibia 61.3107
rfoot 200.772 -206.097
rtoes 27.2007
lfemur -40.4092 18.9228 -34.4722
ltibia 58.0292
lfoot 137.707 -155.992
ltoes -4.46782
602
root -2.81292 15.4636 -6.37203 -14.8014 -75.1647 -329.334
lowerback -3.3592 4.48677 -7.37631
upperback -7.5779 5.37836 -6.23177
thorax -6.16988 2.75716 -2.54673
lowerneck -12.6023 -6.84784 -7.77189
upperneck 38.7283 -12.1225 6.17469
head 17.1557 -5.80211 1.76868
rclavicle 7.02455e-014 -6.52014e-014
rhumerus -11.161 20.0634 -72.2406
rradius 63.3548
rwrist -50.1496
rhand 6.5398 10.463
rfingers 7.12502
rthumb 31.8375 -16.7754
lclavicle 7.02455e-014 -6.52014e-014
lhumerus -35.9307 45.5175 10.8604
lradius 27.7038
lwrist 11.0884
lhand -10.9044 34.1726
lfingers 7.12502
lthumb 15.1126 63.6009
rfemur 267.58 -20.3312 -303.38
rtibia 59.7219
rfoot 197.807 -209.355
rtoes 30.5809
lfemur -40.4436 18.6782 -34.1431
ltibia 57.368
lfoot 138.447 -155.76
ltoes -5.48942
603
root -2.88329 15.5137 -6.44246 -16.2162 -76.1913 -327.406
lowerback -4.43961 4.5443 -6.90247
upperback -7.42989 5.57817 -6.38255
thorax -5.32898 2.81519 -2.84832
lowerneck -12.2672 -6.9753 -8.18246
upperneck 38.4983 -12.54 6.91445
head 17.1102 -5.95985 2.09586
rclavicle -1.51573e-014 5.08889e-014
rhumerus -11.1268 17.5914 -71.9255
rradius 61.9896
rwrist -49.59
rhand 5.06867 11.1618
rfingers 7.12502
rthumb 30.4355 -16.3457
lclavicle -1.51573e-014 5.08889e-014
lhumerus -36.0755 45.3745 12.2538
lradius 30.6383
lwrist 16.4226
lhand -12.0968 34.0614
lfingers 7.12502
lthumb 13.9637 63.5724
rfemur 268.058 -20.322 -304.84
rtibia 58.0915
rfoot 193.918 -212.996
rtoes 33.7374
lfemur -40.2654 18.4187 -33.8225
ltibia 56.581
lfoot 138.471 -156.543
ltoes -3.4991
604
root -2.95654 15.5656 -6.51316 -17.1199 -77.144 -326.242
lowerback -5.16366 4.61011 -6.27101
upperback -7.35002 5.74607 -6.35718
thorax -4.76432 2.86453 -3.08688
lowerneck -12.6982 -6.02678 -2.62155
upperneck 38.2721 -10.6579 2.23136
head 16.0171 -4.98548 -0.523855
rclavicle -2.92586e-014 -5.725e-014
rhumerus -11.352 15.2631 -71.5867
rradius 60.5751
rwrist -48.8755
rhand 3.28494 12.1402
rfingers 7.12502
rthumb 28.7328 -15.6692
lclavicle -2.92586e-014 -5.725e-014
lhumerus -36.698 45.3511 13.225
lradius 33.0593
lwrist 21.1019
lhand -11.2927 33.3143
lfingers 7.12502
lthumb 14.7385 62.7703
rfemur 268.657 -20.6029 -306.14
rtibia 56.4495
rfoot 190.422 -215.965
rtoes 35.6337
lfemur -39.8096 18.5016 -33.275
ltibia 55.6794
lfoot 138.471 -157.344
ltoes -1.18093
605
root -3.02404 15.6262 -6.57682 -17.5912 -77.9832 -325.674
lowerback -5.55096 4.51362 -5.65475
upperback -7.40347 5.6541 -6.06208
thorax -4.56284 2.79924 -3.07989
lowerneck -11.3269 -6.87519 -8.9325
upperneck 38.3243 -12.6205 7.67007
head 16.9384 -6.06678 2.57768
rclavicle -2.04997e-015 5.40694e-014
rhumerus -11.6541 13.6494 -71.2317
rradius 59.0577
rwrist -48.0379
rhand 1.43261 13.1523
rfingers 7.12502
rthumb 26.9618 -14.944
lclavicle -2.04997e-015 5.40694e-014
lhumerus -37.795 45.1774 13.7473
lradius 34.7975
lwrist 25.6769
lhand -10.2775 31.8972
lfingers 7.12502
lthumb 15.7164 61.279
rfemur 269.432 -21.043 -307.64
rtibia 54.8545
rfoot 187.756 -218.063
rtoes 36.1384
lfemur -39.116 18.1233 -32.4532
ltibia 54.6831
lfoot 138.176 -158.01
ltoes 0.84247
606
root -3.08961 15.6878 -6.64448 -19.4372 -78.6242 -323.708
lowerback -5.86028 4.53702 -5.34672
upperback -7.45339 5.70581 -5.93425
thorax -4.42009 2.81339 -3.08808
lowerneck -10.7939 -7.04517 -9.18874
upperneck 38.2394 -12.9298 7.75301
head 16.8334 -6.25258 2.61471
rclavicle -3.84524e-014 9.85972e-014
rhumerus -12.117 11.5883 -70.7543
rradius 57.5632
rwrist -47.5769
rhand -0.66902 13.8489
rfingers 7.12502
rthumb 24.9494 -14.5424
lclavicle -3.84524e-014 9.85972e-014
lhumerus -37.6806 44.8235 15.4423
lradius 37.0156
lwrist 30.5431
lhand -11.5478 31.4833
lfingers 7.12502
lthumb 14.4928 60.9572
rfemur 270.298 -21.3836 -309.85
rtibia 53.458
rfoot 183.386 -220.192
rtoes 37.1339
lfemur -38.3444 17.2405 -31.8651
ltibia 53.5946
lfoot 137.422 -158.661
ltoes 4.47541
607
root -3.15476 15.7584 -6.72595 -20.338 -79.2535 -322.752
lowerback -6.11702 4.55817 -5.01912
upperback -7.43367 5.75994 -5.74124
thorax -4.23682 2.83183 -3.03872
lowerneck -10.3381 -7.0947 -9.33927
upperneck 38.1162 -13.1362 8.01349
head 16.7241 -6.35534 2.73118
rclavicle 1.50579e-014 1.27222e-014
rhumerus -12.488 9.34307 -70.2852
rradius 56.1202
rwrist -47.4677
rhand -3.80986 14.3893
rfingers 7.12502
rthumb 21.9365 -14.387
lclavicle 1.50579e-014 1.27222e-014
lhumerus -37.6444 44.4826 17.2729
lradius 39.5302
lwrist 34.659
lhand -12.7056 31.0317
lfingers 7.12502
lthumb 13.377 60.5823
rfemur 271.423 -21.5838 -312.508
rtibia 52.2923
rfoot 175.344 -222.418
rtoes 41.9751
lfemur -37.5587 16.7744 -31.1375
ltibia 52.4457
lfoot 137.394 -158.676
ltoes 6.40975
608
root -3.22267 15.8192 -6.80608 -21.4898 -79.7624 -321.756
lowerback -6.10577 4.33001 -4.7085
upperback -7.40939 5.46111 -5.46096
thorax -4.21403 2.6778 -2.92089
lowerneck -9.64053 -6.76821 -9.32886
upperneck 37.9019 -12.8161 8.2892
head 16.4174 -6.2316 2.93664
rclavicle -1.09866e-013 -1.19271e-014
rhumerus -12.7151 7.68198 -70.1555
rradius 54.6492
rwrist -47.7743
rhand -7.56113 14.9352
rfingers 7.12502
rthumb 18.3311 -14.2211
lclavicle -1.09866e-013 -1.19271e-014
lhumerus -37.6272 44.853 17.7873
lradius 40.6581
lwrist 37.5864
lhand -12.8382 30.7742
lfingers 7.12502
lthumb 13.2492 60.3331
rfemur 272.819 -21.8093 -315.613
rtibia 51.3386
rfoot 167.723 -223.85
rtoes 47.3275
lfemur -36.4675 16.7632 -30.4954
ltibia 51.2595
lfoot 137.979 -158.601
ltoes 4.96001
609
root -3.2903 15.8664 -6.88044 -22.3096 -80.2782 -321.188
lowerback -6.05117 4.02728 -4.14452
upperback -7.27761 5.06711 -5.15901
thorax -4.08002 2.46723 -2.91824
lowerneck -9.73167 -6.64012 -9.22716
upperneck 38.0435 -12.6776 8.2169
head 16.478 -6.1772 2.90965
rclavicle -6.1996e-015 -3.4191e-014
rhumerus -12.7327 6.16995 -70.0664
rradius 53.2879
rwrist -48.7525
rhand -10.7591 15.5639
rfingers 7.12502
rthumb 15.2525 -13.8538
lclavicle -6.1996e-015 -3.4191e-014
lhumerus -39.3609 44.4478 18.2888
lradius 43.5934
lwrist 41.0267
lhand -12.0398 29.6017
lfingers 7.12502
lthumb 14.0187 59.1089
rfemur 274.316 -22.0263 -318.483
rtibia 50.4651
rfoot 161.792 -224.982
rtoes 49.7215
lfemur -35.2931 16.3576 -29.6818
ltibia 50.1281
lfoot 138.193 -158.603
ltoes 4.18197
610
root -3.36122 15.9115 -6.95552 -23.8931 -80.8149 -319.88
lowerback -6.00728 3.75247 -3.70753
upperback -7.12092 4.71406 -4.87684
thorax -3.92727 2.28242 -2.86617
lowerneck -9.38069 -6.38623 -6.58921
upperneck 37.4576 -11.9429 5.93443
head 15.5426 -5.79082 1.61738
rclavicle 1.33558e-014 4.45278e-014
rhumerus -12.7029 4.70401 -70.0027
rradius 52.0692
rwrist -50.6678
rhand -13.4495 15.945
rfingers 7.12502
rthumb 12.6599 -13.6513
lclavicle 1.33558e-014 4.45278e-014
lhumerus -40.3991 44.0829 18.9846
lradius 45.9427
lwrist 43.8103
lhand -13.202 31.0382
lfingers 7.12502
lthumb 12.8985 60.6196
rfemur 276 -22.0752 -321.493
rtibia 49.6546
rfoot 154.108 -225.39
rtoes 50.8513
lfemur -34.0683 15.5928 -28.9025
ltibia 49.087
lfoot 137.581 -159.056
ltoes 6.31393
611
root -3.43984 15.9544 -7.03116 -26.2801 -81.3404 -317.878
lowerback -5.80286 3.47113 -3.38351
upperback -7.03767 4.3366 -4.6124
thorax -3.95324 2.08913 -2.78796
lowerneck -9.17056 -6.21929 -5.91851
upperneck 37.4312 -11.6732 5.35611
head 15.3467 -5.67709 1.31465
rclavicle -7.19973e-014 8.34896e-015
rhumerus -12.762 2.91364 -70.1271
rradius 50.8221
rwrist -53.0438
rhand -15.8625 16.2595
rfingers 7.12502
rthumb 10.3328 -13.4667
lclavicle -7.19973e-014 8.34896e-015
lhumerus -41.0131 43.6227 19.4928
lradius 47.5933
lwrist 45.7649
lhand -10.1096 28.5696
lfingers 7.12502
lthumb 15.8781 57.9386
rfemur 278.025 -21.833 -324.994
rtibia 48.9321
rfoot 144.213 -224.35
rtoes 52.9613
lfemur -32.7191 15.1066 -28.2665
ltibia 48.1428
lfoot 137.09 -159.45
ltoes 8.94104
612
root -3.51877 15.9861 -7.10579 -27.6668 -81.898 -316.84
lowerback -5.64362 3.29551 -2.79563
upperback -6.92479 4.09854 -4.45166
thorax -3.89323 1.95234 -2.95507
lowerneck -9.15828 -6.20983 -5.7133
upperneck 37.4594 -11.7562 5.35435
head 15.3487 -5.69587 1.26269
rclavicle -2.80411e-014 2.38542e-014
rhumerus -12.8728 0.147903 -70.2105
rradius 49.627
rwrist -55.7047
rhand -17.4074 16.8113
rfingers 7.12502
rthumb 8.84221 -12.9834
lclavicle -2.80411e-014 2.38542e-014
lhumerus -40.9961 43.046 20.5705
lradius 49.0517
lwrist 46.9372
lhand -10.0753 29.207
lfingers 7.12502
lthumb 15.9112 58.5734
rfemur 279.871 -21.6536 -327.985
rtibia 48.3187
rfoot 135.914 -222.344
rtoes 55.3185
lfemur -31.4852 14.5493 -27.4795
ltibia 47.303
lfoot 136.812 -159.662
ltoes 10.6468
613
root -3.60123 16.0033 -7.18959 -29.5593 -82.2932 -315.207
lowerback -5.74817 3.2322 -2.30045
upperback -6.65968 4.0288 -4.50537
thorax -3.51657 1.90045 -3.26686
lowerneck -9.28516 -6.32822 -6.28702
upperneck 37.4478 -12.2324 6.36683
head 15.5595 -5.85431 1.69413
rclavicle -3.67006e-014 1.78906e-014
rhumerus -13.0369 -3.47851 -70.23
rradius 48.6905
rwrist -58.2956
rhand -18.3414 16.9505
rfingers 7.12502
rthumb 7.94081 -12.8803
lclavicle -3.67006e-014 1.78906e-014
lhumerus -40.2364 42.4801 22.4214
lradius 50.6131
lwrist 47.9906
lhand -9.67769 28.3937
lfingers 7.12502
lthumb 16.294 57.7291
rfemur 281.357 -21.741 -330.618
rtibia 47.8766
rfoot 130.305 -220.998
rtoes 56.8224
lfemur -30.3556 13.7529 -26.7818
ltibia 46.4707
lfoot 137.078 -159.453
ltoes 10.9124
